<?xml version="1.0" encoding="UTF-8" standalone="no"?>
<!-- Created with Inkscape (http://www.inkscape.org/) -->
<svg xmlns:dc="http://purl.org/dc/elements/1.1/" xmlns:cc="http://web.resource.org/cc/" xmlns:rdf="http://www.w3.org/1999/02/22-rdf-syntax-ns#" xmlns:svg="http://www.w3.org/2000/svg" xmlns="http://www.w3.org/2000/svg" xmlns:sodipodi="http://sodipodi.sourceforge.net/DTD/sodipodi-0.dtd" xmlns:inkscape="http://www.inkscape.org/namespaces/inkscape" sodipodi:docname="wc.svg" sodipodi:docbase="C:\Documents and Settings\Zuzik\Plocha\15.Cinnosti" inkscape:version="0.44" sodipodi:version="0.32" id="svg2" height="768.53662" width="484.73141" inkscape:export-filename="C:\Documents and Settings\toti1.TOTI\Plocha\Klipy PNG\Činnosti\záchod.png" inkscape:export-xdpi="90" inkscape:export-ydpi="90" version="1.0">
  <defs id="defs3">
    <linearGradient id="linearGradient5853">
      <stop id="stop5855" offset="0" style="stop-color:#7d7d7d;stop-opacity:1;"/>
      <stop id="stop5857" offset="1.0000000" style="stop-color:#fafafa;stop-opacity:1.0000000;"/>
    </linearGradient>
  </defs>
  <sodipodi:namedview inkscape:window-y="23" inkscape:window-x="0" inkscape:window-height="672" inkscape:window-width="1016" inkscape:current-layer="layer1" inkscape:document-units="px" inkscape:cy="410.21621" inkscape:cx="455.84346" inkscape:zoom="0.64668358" inkscape:pageshadow="2" inkscape:pageopacity="0.0" borderopacity="1.0" bordercolor="#666666" pagecolor="#ffffff" id="base"/>
  <g id="layer1" inkscape:groupmode="layer" inkscape:label="Layer 1" transform="translate(-150.0773,-168.1893)">
    <g id="g2848" transform="translate(-63.4004,-151.5424)" inkscape:export-filename="/home/lamatin/Desktop/Projekt_Kliparty/tom/ Klipy PNG/Činnosti/wc.png" inkscape:export-xdpi="90" inkscape:export-ydpi="90">
      <path style="fill:#4f4f4f;fill-opacity:1;stroke:#7f7f7f;stroke-width:5;stroke-linecap:round;stroke-linejoin:round;stroke-miterlimit:4;stroke-opacity:1" d="M 391.72434,497.59579 L 457.36463,514.53522 L 283.73546,586.52781 L 218.09517,569.58838 L 391.72434,497.59579 z " id="rect18972" sodipodi:nodetypes="ccccc"/>
      <path style="fill:#6d6d6d;fill-opacity:1;stroke:#7f7f7f;stroke-width:5;stroke-linecap:round;stroke-linejoin:round;stroke-miterlimit:4;stroke-opacity:1" d="M 275.26575,676.51853 L 359.96291,650.05067 C 384.59708,650.05067 404.42892,669.88251 404.42892,694.51668 L 404.42892,809.91656 C 404.42892,834.55073 384.59708,854.38257 359.96291,854.38257 L 275.26575,880.85043 C 250.63158,880.85043 230.79974,861.01859 230.79974,836.38442 L 230.79974,720.98454 C 230.79974,696.35037 250.63158,676.51853 275.26575,676.51853 z " id="rect18975" sodipodi:nodetypes="ccccccccc"/>
      <path style="fill:#4f4f4f;fill-opacity:1;stroke:#7f7f7f;stroke-width:5;stroke-linecap:round;stroke-linejoin:round;stroke-miterlimit:4;stroke-opacity:1" d="M 215.97775,572.76453 L 281.61805,587.58653 L 281.61805,750.62855 L 215.97775,735.80655 L 215.97775,572.76453 z " id="rect18966" sodipodi:nodetypes="ccccc"/>
      <path style="fill:#4f4f4f;fill-opacity:1;stroke:#7f7f7f;stroke-width:5;stroke-linecap:round;stroke-linejoin:round;stroke-miterlimit:4;stroke-opacity:1" d="M 282.67676,586.52781 L 460.54079,512.41779 L 461.5995,674.40111 L 283.73547,748.51112 L 282.67676,586.52781 z " id="rect18969" sodipodi:nodetypes="ccccc"/>
      <path style="fill:#7cc0ff;fill-opacity:1;stroke:#7f7f7f;stroke-width:5;stroke-linecap:round;stroke-linejoin:round;stroke-miterlimit:4;stroke-opacity:1" d="M 319.73178,736.8653 L 529.35732,736.8653 C 530.06313,851.91227 505.35979,856.85294 493.36103,916.84676 C 455.24728,929.55133 410.78125,929.55133 372.6675,916.84676 C 355.02226,856.85294 320.43759,843.44256 319.73178,736.8653 z " id="rect16686" sodipodi:nodetypes="ccccc"/>
      <path sodipodi:type="arc" style="fill:#7d7d7d;fill-opacity:1;stroke:#7f7f7f;stroke-width:5;stroke-linecap:round;stroke-linejoin:round;stroke-miterlimit:4;stroke-opacity:1" id="path16684" sodipodi:cx="199.03831" sodipodi:cy="800.38812" sodipodi:rx="103.75402" sodipodi:ry="118.57602" d="M 302.79234 800.38812 A 103.75402 118.57602 0 1 1  95.284294,800.38812 A 103.75402 118.57602 0 1 1  302.79234 800.38812 z" transform="matrix(0.711711,-0.395835,0.702473,0.401041,-274.0704,497.8396)"/>
      <path sodipodi:type="arc" style="fill:#4f4f4f;fill-opacity:1;stroke:#7f7f7f;stroke-width:5;stroke-linecap:round;stroke-linejoin:round;stroke-miterlimit:4;stroke-opacity:1" id="path17448" sodipodi:cx="199.03831" sodipodi:cy="800.38812" sodipodi:rx="103.75402" sodipodi:ry="118.57602" d="M 302.79234 800.38812 A 103.75402 118.57602 0 1 1  95.284294,800.38812 A 103.75402 118.57602 0 1 1  302.79234 800.38812 z" transform="matrix(0.525294,-0.292155,0.518476,0.295997,-89.69749,561.2789)"/>
      <rect style="fill:black;fill-opacity:1;stroke:none;stroke-width:5;stroke-linecap:round;stroke-linejoin:round;stroke-miterlimit:4;stroke-opacity:1" id="rect7401" width="61.405315" height="264.6781" x="418.43713" y="-939.78381" ry="30.702658" transform="matrix(-0.44051,0.897748,-0.897748,-0.44051,0,0)"/>
      <rect style="fill:black;fill-opacity:1;stroke:none;stroke-width:5;stroke-linecap:round;stroke-linejoin:round;stroke-miterlimit:4;stroke-opacity:1" id="rect16672" width="61.405312" height="264.67807" x="180.83392" y="-1041.3423" ry="30.702656" transform="matrix(-0.695648,0.718382,-0.718382,-0.695648,0,0)"/>
      <rect style="fill:black;fill-opacity:1;stroke:none;stroke-width:5;stroke-linecap:round;stroke-linejoin:round;stroke-miterlimit:4;stroke-opacity:1" id="rect16674" width="61.405266" height="264.67786" x="-766.4068" y="-960.75586" ry="30.702633" transform="matrix(-0.980112,-0.198447,0.198447,-0.980112,0,0)"/>
      <rect style="fill:black;fill-opacity:1;stroke:none;stroke-width:5;stroke-linecap:round;stroke-linejoin:round;stroke-miterlimit:4;stroke-opacity:1" id="rect16676" width="61.405289" height="264.67795" x="-465.36978" y="-1159.2708" ry="30.702644" transform="matrix(-0.976539,0.215339,-0.215339,-0.976539,0,0)"/>
      <rect style="fill:black;fill-opacity:1;stroke:none;stroke-width:5;stroke-linecap:round;stroke-linejoin:round;stroke-miterlimit:4;stroke-opacity:1" id="rect16678" width="61.405239" height="264.67773" x="-623.7688" y="-597.17029" ry="30.70262" transform="matrix(-0.966085,-0.258224,0.258224,-0.966085,0,0)"/>
      <path sodipodi:type="arc" style="fill:black;fill-opacity:1;stroke:none;stroke-width:5;stroke-linecap:round;stroke-linejoin:round;stroke-miterlimit:4;stroke-opacity:1" id="path7403" sodipodi:cx="597.11499" sodipodi:cy="463.71695" sodipodi:rx="82.579727" sodipodi:ry="78.344872" d="M 679.69472 463.71695 A 82.579727 78.344872 0 1 1  514.53526,463.71695 A 82.579727 78.344872 0 1 1  679.69472 463.71695 z" transform="translate(-93.1669,-65.64035)"/>
      <path sodipodi:type="arc" style="fill:white;fill-opacity:1;stroke:none;stroke-width:5;stroke-linecap:round;stroke-linejoin:round;stroke-miterlimit:4;stroke-opacity:1" id="path7407" sodipodi:cx="597.11499" sodipodi:cy="463.71695" sodipodi:rx="82.579727" sodipodi:ry="78.344872" d="M 679.69472 463.71695 A 82.579727 78.344872 0 1 1  514.53526,463.71695 A 82.579727 78.344872 0 1 1  679.69472 463.71695 z" transform="matrix(0.370832,9.794249e-2,-2.547571e-2,9.645666e-2,342.4569,287.5841)"/>
      <rect style="fill:black;fill-opacity:1;stroke:none;stroke-width:5;stroke-linecap:round;stroke-linejoin:round;stroke-miterlimit:4;stroke-opacity:1" id="rect16682" width="61.405239" height="264.67776" x="-26.141361" y="675.38013" ry="30.70262" transform="matrix(0.728467,-0.685081,0.685081,0.728467,0,0)"/>
    </g>
  </g>
  <metadata>
    <rdf:RDF>
      <cc:Work>
        <dc:format>image/svg+xml</dc:format>
        <dc:type rdf:resource="http://purl.org/dc/dcmitype/StillImage"/>
        <cc:license rdf:resource="http://creativecommons.org/licenses/publicdomain/"/>
        <dc:publisher>
          <cc:Agent rdf:about="http://openclipart.org/">
            <dc:title>Open Clip Art Library</dc:title>
          </cc:Agent>
        </dc:publisher>
        <dc:title>Toilet</dc:title>
        <dc:date>2006-12-25T17:28:55</dc:date>
        <dc:description>Stickman on Toilet</dc:description>
        <dc:source>http://openclipart.org/detail/2265/toilet-by-machovka</dc:source>
        <dc:creator>
          <cc:Agent>
            <dc:title>Machovka</dc:title>
          </cc:Agent>
        </dc:creator>
        <dc:subject>
          <rdf:Bag>
            <rdf:li>activity</rdf:li>
            <rdf:li>clip art</rdf:li>
            <rdf:li>clipart</rdf:li>
            <rdf:li>hygiene</rdf:li>
            <rdf:li>man</rdf:li>
            <rdf:li>people</rdf:li>
            <rdf:li>sign</rdf:li>
            <rdf:li>stickman</rdf:li>
            <rdf:li>toilet</rdf:li>
          </rdf:Bag>
        </dc:subject>
      </cc:Work>
      <cc:License rdf:about="http://creativecommons.org/licenses/publicdomain/">
        <cc:permits rdf:resource="http://creativecommons.org/ns#Reproduction"/>
        <cc:permits rdf:resource="http://creativecommons.org/ns#Distribution"/>
        <cc:permits rdf:resource="http://creativecommons.org/ns#DerivativeWorks"/>
      </cc:License>
    </rdf:RDF>
  </metadata>
</svg>